<svg width="1366" height="768" viewBox="0 0 1366 768" fill="none" xmlns="http://www.w3.org/2000/svg">
<g opacity="0.1">
<path fill-rule="evenodd" clip-rule="evenodd" d="M1226.41 30.6681C1228.13 30.6681 1229.53 29.2725 1229.53 27.5457C1229.53 25.8284 1228.13 24.4234 1226.41 24.4234C1224.69 24.4234 1223.28 25.8284 1223.28 27.5457C1223.28 29.2725 1224.69 30.6681 1226.41 30.6681" fill="#04A2F4"/>
<path fill-rule="evenodd" clip-rule="evenodd" d="M1257.7 30.6681C1259.43 30.6681 1260.83 29.2725 1260.83 27.5457C1260.83 25.8284 1259.43 24.4234 1257.7 24.4234C1255.98 24.4234 1254.58 25.8284 1254.58 27.5457C1254.58 29.2725 1255.98 30.6681 1257.7 30.6681" fill="#04A2F4"/>
<path fill-rule="evenodd" clip-rule="evenodd" d="M1288.99 30.6681C1290.72 30.6681 1292.12 29.2725 1292.12 27.5457C1292.12 25.8284 1290.72 24.4234 1288.99 24.4234C1287.27 24.4234 1285.87 25.8284 1285.87 27.5457C1285.87 29.2725 1287.27 30.6681 1288.99 30.6681" fill="#04A2F4"/>
<path fill-rule="evenodd" clip-rule="evenodd" d="M1320.29 30.6681C1322.01 30.6681 1323.41 29.2725 1323.41 27.5457C1323.41 25.8284 1322.01 24.4234 1320.29 24.4234C1318.57 24.4234 1317.16 25.8284 1317.16 27.5457C1317.16 29.2725 1318.57 30.6681 1320.29 30.6681" fill="#04A2F4"/>
<path fill-rule="evenodd" clip-rule="evenodd" d="M1351.58 30.6681C1353.3 30.6681 1354.7 29.2725 1354.7 27.5457C1354.7 25.8284 1353.3 24.4234 1351.58 24.4234C1349.86 24.4234 1348.46 25.8284 1348.46 27.5457C1348.46 29.2725 1349.86 30.6681 1351.58 30.6681" fill="#04A2F4"/>
<path fill-rule="evenodd" clip-rule="evenodd" d="M1226.41 61.9439C1228.13 61.9439 1229.53 60.5483 1229.53 58.8215C1229.53 57.0948 1228.13 55.6992 1226.41 55.6992C1224.69 55.6992 1223.28 57.0948 1223.28 58.8215C1223.28 60.5483 1224.69 61.9439 1226.41 61.9439" fill="#04A2F4"/>
<path fill-rule="evenodd" clip-rule="evenodd" d="M1257.7 61.9439C1259.43 61.9439 1260.83 60.5483 1260.83 58.8215C1260.83 57.0948 1259.43 55.6992 1257.7 55.6992C1255.98 55.6992 1254.58 57.0948 1254.58 58.8215C1254.58 60.5483 1255.98 61.9439 1257.7 61.9439" fill="#04A2F4"/>
<path fill-rule="evenodd" clip-rule="evenodd" d="M1288.99 61.9439C1290.72 61.9439 1292.12 60.5483 1292.12 58.8215C1292.12 57.0948 1290.72 55.6992 1288.99 55.6992C1287.27 55.6992 1285.87 57.0948 1285.87 58.8215C1285.87 60.5483 1287.27 61.9439 1288.99 61.9439" fill="#04A2F4"/>
<path fill-rule="evenodd" clip-rule="evenodd" d="M1320.29 61.9439C1322.01 61.9439 1323.41 60.5483 1323.41 58.8215C1323.41 57.0948 1322.01 55.6992 1320.29 55.6992C1318.57 55.6992 1317.16 57.0948 1317.16 58.8215C1317.16 60.5483 1318.57 61.9439 1320.29 61.9439" fill="#04A2F4"/>
<path fill-rule="evenodd" clip-rule="evenodd" d="M1351.58 61.9439C1353.3 61.9439 1354.7 60.5483 1354.7 58.8215C1354.7 57.0948 1353.3 55.6992 1351.58 55.6992C1349.86 55.6992 1348.46 57.0948 1348.46 58.8215C1348.46 60.5483 1349.86 61.9439 1351.58 61.9439" fill="#04A2F4"/>
<path fill-rule="evenodd" clip-rule="evenodd" d="M1226.41 93.2148C1228.13 93.2148 1229.53 91.8145 1229.53 90.0972C1229.53 88.3705 1228.13 86.9749 1226.41 86.9749C1224.69 86.9749 1223.28 88.3705 1223.28 90.0972C1223.28 91.8145 1224.69 93.2148 1226.41 93.2148" fill="#04A2F4"/>
<path fill-rule="evenodd" clip-rule="evenodd" d="M1257.7 93.2148C1259.43 93.2148 1260.83 91.8145 1260.83 90.0972C1260.83 88.3705 1259.43 86.9749 1257.7 86.9749C1255.98 86.9749 1254.58 88.3705 1254.58 90.0972C1254.58 91.8145 1255.98 93.2148 1257.7 93.2148" fill="#04A2F4"/>
<path fill-rule="evenodd" clip-rule="evenodd" d="M1288.99 93.2148C1290.72 93.2148 1292.12 91.8145 1292.12 90.0972C1292.12 88.3705 1290.72 86.9749 1288.99 86.9749C1287.27 86.9749 1285.87 88.3705 1285.87 90.0972C1285.87 91.8145 1287.27 93.2148 1288.99 93.2148" fill="#04A2F4"/>
<path fill-rule="evenodd" clip-rule="evenodd" d="M1320.29 93.2148C1322.01 93.2148 1323.41 91.8145 1323.41 90.0972C1323.41 88.3705 1322.01 86.9749 1320.29 86.9749C1318.57 86.9749 1317.16 88.3705 1317.16 90.0972C1317.16 91.8145 1318.57 93.2148 1320.29 93.2148" fill="#04A2F4"/>
<path fill-rule="evenodd" clip-rule="evenodd" d="M1351.58 93.2148C1353.3 93.2148 1354.7 91.8145 1354.7 90.0972C1354.7 88.3705 1353.3 86.9749 1351.58 86.9749C1349.86 86.9749 1348.46 88.3705 1348.46 90.0972C1348.46 91.8145 1349.86 93.2148 1351.58 93.2148" fill="#04A2F4"/>
<path fill-rule="evenodd" clip-rule="evenodd" d="M1226.41 124.487C1228.13 124.487 1229.53 123.091 1229.53 121.364C1229.53 119.642 1228.13 118.242 1226.41 118.242C1224.69 118.242 1223.28 119.642 1223.28 121.364C1223.28 123.091 1224.69 124.487 1226.41 124.487" fill="#04A2F4"/>
<path fill-rule="evenodd" clip-rule="evenodd" d="M1257.7 124.487C1259.43 124.487 1260.83 123.091 1260.83 121.364C1260.83 119.642 1259.43 118.242 1257.7 118.242C1255.98 118.242 1254.58 119.642 1254.58 121.364C1254.58 123.091 1255.98 124.487 1257.7 124.487" fill="#04A2F4"/>
<path fill-rule="evenodd" clip-rule="evenodd" d="M1288.99 124.487C1290.72 124.487 1292.12 123.091 1292.12 121.364C1292.12 119.642 1290.72 118.242 1288.99 118.242C1287.27 118.242 1285.87 119.642 1285.87 121.364C1285.87 123.091 1287.27 124.487 1288.99 124.487" fill="#04A2F4"/>
<path fill-rule="evenodd" clip-rule="evenodd" d="M1320.29 124.487C1322.01 124.487 1323.41 123.091 1323.41 121.364C1323.41 119.642 1322.01 118.242 1320.29 118.242C1318.57 118.242 1317.16 119.642 1317.16 121.364C1317.16 123.091 1318.57 124.487 1320.29 124.487" fill="#04A2F4"/>
<path fill-rule="evenodd" clip-rule="evenodd" d="M1351.58 124.487C1353.3 124.487 1354.7 123.091 1354.7 121.364C1354.7 119.642 1353.3 118.242 1351.58 118.242C1349.86 118.242 1348.46 119.642 1348.46 121.364C1348.46 123.091 1349.86 124.487 1351.58 124.487" fill="#04A2F4"/>
<path fill-rule="evenodd" clip-rule="evenodd" d="M1226.41 155.762C1228.13 155.762 1229.53 154.367 1229.53 152.64C1229.53 150.913 1228.13 149.518 1226.41 149.518C1224.69 149.518 1223.28 150.913 1223.28 152.64C1223.28 154.367 1224.69 155.762 1226.41 155.762" fill="#04A2F4"/>
<path fill-rule="evenodd" clip-rule="evenodd" d="M1257.7 155.762C1259.43 155.762 1260.83 154.367 1260.83 152.64C1260.83 150.913 1259.43 149.518 1257.7 149.518C1255.98 149.518 1254.58 150.913 1254.58 152.64C1254.58 154.367 1255.98 155.762 1257.7 155.762" fill="#04A2F4"/>
<path fill-rule="evenodd" clip-rule="evenodd" d="M1288.99 155.762C1290.72 155.762 1292.12 154.367 1292.12 152.64C1292.12 150.913 1290.72 149.518 1288.99 149.518C1287.27 149.518 1285.87 150.913 1285.87 152.64C1285.87 154.367 1287.27 155.762 1288.99 155.762" fill="#04A2F4"/>
<path fill-rule="evenodd" clip-rule="evenodd" d="M1320.29 155.762C1322.01 155.762 1323.41 154.367 1323.41 152.64C1323.41 150.913 1322.01 149.518 1320.29 149.518C1318.57 149.518 1317.16 150.913 1317.16 152.64C1317.16 154.367 1318.57 155.762 1320.29 155.762" fill="#04A2F4"/>
<path fill-rule="evenodd" clip-rule="evenodd" d="M1351.58 155.762C1353.3 155.762 1354.7 154.367 1354.7 152.64C1354.7 150.913 1353.3 149.518 1351.58 149.518C1349.86 149.518 1348.46 150.913 1348.46 152.64C1348.46 154.367 1349.86 155.762 1351.58 155.762" fill="#04A2F4"/>
<path fill-rule="evenodd" clip-rule="evenodd" d="M1226.41 187.033C1228.13 187.033 1229.53 185.633 1229.53 183.911C1229.53 182.189 1228.13 180.789 1226.41 180.789C1224.69 180.789 1223.28 182.189 1223.28 183.911C1223.28 185.633 1224.69 187.033 1226.41 187.033" fill="#04A2F4"/>
<path fill-rule="evenodd" clip-rule="evenodd" d="M1257.7 187.033C1259.43 187.033 1260.83 185.633 1260.83 183.911C1260.83 182.189 1259.43 180.789 1257.7 180.789C1255.98 180.789 1254.58 182.189 1254.58 183.911C1254.58 185.633 1255.98 187.033 1257.7 187.033" fill="#04A2F4"/>
<path fill-rule="evenodd" clip-rule="evenodd" d="M1288.99 187.033C1290.72 187.033 1292.12 185.633 1292.12 183.911C1292.12 182.189 1290.72 180.789 1288.99 180.789C1287.27 180.789 1285.87 182.189 1285.87 183.911C1285.87 185.633 1287.27 187.033 1288.99 187.033" fill="#04A2F4"/>
<path fill-rule="evenodd" clip-rule="evenodd" d="M1320.29 187.033C1322.01 187.033 1323.41 185.633 1323.41 183.911C1323.41 182.189 1322.01 180.789 1320.29 180.789C1318.57 180.789 1317.16 182.189 1317.16 183.911C1317.16 185.633 1318.57 187.033 1320.29 187.033" fill="#04A2F4"/>
<path fill-rule="evenodd" clip-rule="evenodd" d="M1351.58 187.033C1353.3 187.033 1354.7 185.633 1354.7 183.911C1354.7 182.189 1353.3 180.789 1351.58 180.789C1349.86 180.789 1348.46 182.189 1348.46 183.911C1348.46 185.633 1349.86 187.033 1351.58 187.033" fill="#04A2F4"/>
<path fill-rule="evenodd" clip-rule="evenodd" d="M1226.41 218.305C1228.13 218.305 1229.53 216.909 1229.53 215.183C1229.53 213.456 1228.13 212.06 1226.41 212.06C1224.69 212.06 1223.28 213.456 1223.28 215.183C1223.28 216.909 1224.69 218.305 1226.41 218.305" fill="#04A2F4"/>
<path fill-rule="evenodd" clip-rule="evenodd" d="M1257.7 218.305C1259.43 218.305 1260.83 216.909 1260.83 215.183C1260.83 213.456 1259.43 212.06 1257.7 212.06C1255.98 212.06 1254.58 213.456 1254.58 215.183C1254.58 216.909 1255.98 218.305 1257.7 218.305" fill="#04A2F4"/>
<path fill-rule="evenodd" clip-rule="evenodd" d="M1288.99 218.305C1290.72 218.305 1292.12 216.909 1292.12 215.183C1292.12 213.456 1290.72 212.06 1288.99 212.06C1287.27 212.06 1285.87 213.456 1285.87 215.183C1285.87 216.909 1287.27 218.305 1288.99 218.305" fill="#04A2F4"/>
<path fill-rule="evenodd" clip-rule="evenodd" d="M1320.29 218.305C1322.01 218.305 1323.41 216.909 1323.41 215.183C1323.41 213.456 1322.01 212.06 1320.29 212.06C1318.57 212.06 1317.16 213.456 1317.16 215.183C1317.16 216.909 1318.57 218.305 1320.29 218.305" fill="#04A2F4"/>
<path fill-rule="evenodd" clip-rule="evenodd" d="M1351.58 218.305C1353.3 218.305 1354.7 216.909 1354.7 215.183C1354.7 213.456 1353.3 212.06 1351.58 212.06C1349.86 212.06 1348.46 213.456 1348.46 215.183C1348.46 216.909 1349.86 218.305 1351.58 218.305" fill="#04A2F4"/>
<path fill-rule="evenodd" clip-rule="evenodd" d="M1226.41 249.581C1228.13 249.581 1229.53 248.18 1229.53 246.458C1229.53 244.732 1228.13 243.336 1226.41 243.336C1224.69 243.336 1223.28 244.732 1223.28 246.458C1223.28 248.18 1224.69 249.581 1226.41 249.581" fill="#04A2F4"/>
<path fill-rule="evenodd" clip-rule="evenodd" d="M1257.7 249.581C1259.43 249.581 1260.83 248.18 1260.83 246.458C1260.83 244.732 1259.43 243.336 1257.7 243.336C1255.98 243.336 1254.58 244.732 1254.58 246.458C1254.58 248.18 1255.98 249.581 1257.7 249.581" fill="#04A2F4"/>
<path fill-rule="evenodd" clip-rule="evenodd" d="M1288.99 249.581C1290.72 249.581 1292.12 248.18 1292.12 246.458C1292.12 244.732 1290.72 243.336 1288.99 243.336C1287.27 243.336 1285.87 244.732 1285.87 246.458C1285.87 248.18 1287.27 249.581 1288.99 249.581" fill="#04A2F4"/>
<path fill-rule="evenodd" clip-rule="evenodd" d="M1320.29 249.581C1322.01 249.581 1323.41 248.18 1323.41 246.458C1323.41 244.732 1322.01 243.336 1320.29 243.336C1318.57 243.336 1317.16 244.732 1317.16 246.458C1317.16 248.18 1318.57 249.581 1320.29 249.581" fill="#04A2F4"/>
<path fill-rule="evenodd" clip-rule="evenodd" d="M1351.58 249.581C1353.3 249.581 1354.7 248.18 1354.7 246.458C1354.7 244.732 1353.3 243.336 1351.58 243.336C1349.86 243.336 1348.46 244.732 1348.46 246.458C1348.46 248.18 1349.86 249.581 1351.58 249.581" fill="#04A2F4"/>
<path fill-rule="evenodd" clip-rule="evenodd" d="M1226.41 280.847C1228.13 280.847 1229.53 279.451 1229.53 277.724C1229.53 276.007 1228.13 274.602 1226.41 274.602C1224.69 274.602 1223.28 276.007 1223.28 277.724C1223.28 279.451 1224.69 280.847 1226.41 280.847" fill="#04A2F4"/>
<path fill-rule="evenodd" clip-rule="evenodd" d="M1257.7 280.847C1259.43 280.847 1260.83 279.451 1260.83 277.724C1260.83 276.007 1259.43 274.602 1257.7 274.602C1255.98 274.602 1254.58 276.007 1254.58 277.724C1254.58 279.451 1255.98 280.847 1257.7 280.847" fill="#04A2F4"/>
<path fill-rule="evenodd" clip-rule="evenodd" d="M1288.99 280.847C1290.72 280.847 1292.12 279.451 1292.12 277.724C1292.12 276.007 1290.72 274.602 1288.99 274.602C1287.27 274.602 1285.87 276.007 1285.87 277.724C1285.87 279.451 1287.27 280.847 1288.99 280.847" fill="#04A2F4"/>
<path fill-rule="evenodd" clip-rule="evenodd" d="M1320.29 280.847C1322.01 280.847 1323.41 279.451 1323.41 277.724C1323.41 276.007 1322.01 274.602 1320.29 274.602C1318.57 274.602 1317.16 276.007 1317.16 277.724C1317.16 279.451 1318.57 280.847 1320.29 280.847" fill="#04A2F4"/>
<path fill-rule="evenodd" clip-rule="evenodd" d="M1351.58 280.847C1353.3 280.847 1354.7 279.451 1354.7 277.724C1354.7 276.007 1353.3 274.602 1351.58 274.602C1349.86 274.602 1348.46 276.007 1348.46 277.724C1348.46 279.451 1349.86 280.847 1351.58 280.847" fill="#04A2F4"/>
<path fill-rule="evenodd" clip-rule="evenodd" d="M1226.41 312.123C1228.13 312.123 1229.53 310.727 1229.53 309.001C1229.53 307.274 1228.13 305.878 1226.41 305.878C1224.69 305.878 1223.28 307.274 1223.28 309.001C1223.28 310.727 1224.69 312.123 1226.41 312.123" fill="#04A2F4"/>
<path fill-rule="evenodd" clip-rule="evenodd" d="M1257.7 312.123C1259.43 312.123 1260.83 310.727 1260.83 309.001C1260.83 307.274 1259.43 305.878 1257.7 305.878C1255.98 305.878 1254.58 307.274 1254.58 309.001C1254.58 310.727 1255.98 312.123 1257.7 312.123" fill="#04A2F4"/>
<path fill-rule="evenodd" clip-rule="evenodd" d="M1288.99 312.123C1290.72 312.123 1292.12 310.727 1292.12 309.001C1292.12 307.274 1290.72 305.878 1288.99 305.878C1287.27 305.878 1285.87 307.274 1285.87 309.001C1285.87 310.727 1287.27 312.123 1288.99 312.123" fill="#04A2F4"/>
<path fill-rule="evenodd" clip-rule="evenodd" d="M1320.29 312.123C1322.01 312.123 1323.41 310.727 1323.41 309.001C1323.41 307.274 1322.01 305.878 1320.29 305.878C1318.57 305.878 1317.16 307.274 1317.16 309.001C1317.16 310.727 1318.57 312.123 1320.29 312.123" fill="#04A2F4"/>
<path fill-rule="evenodd" clip-rule="evenodd" d="M1351.58 312.123C1353.3 312.123 1354.7 310.727 1354.7 309.001C1354.7 307.274 1353.3 305.878 1351.58 305.878C1349.86 305.878 1348.46 307.274 1348.46 309.001C1348.46 310.727 1349.86 312.123 1351.58 312.123" fill="#04A2F4"/>
<mask id="mask0" mask-type="alpha" maskUnits="userSpaceOnUse" x="20" y="516" width="196" height="15">
<path fill-rule="evenodd" clip-rule="evenodd" d="M20 516.234H215.784V530.62H20V516.234Z" fill="white"/>
</mask>
<g mask="url(#mask0)">
<path fill-rule="evenodd" clip-rule="evenodd" d="M145.19 516.234H145.195C151.056 516.234 156.537 518.301 160.628 522.053C163.783 524.944 167.975 526.533 172.441 526.533V526.533C176.906 526.533 181.104 524.944 184.259 522.053C188.356 518.301 193.842 516.234 199.703 516.234H199.714C205.575 516.234 211.056 518.301 215.147 522.053C216.055 522.89 215.987 524.187 214.977 524.944C213.978 525.696 212.424 525.639 211.516 524.806C208.367 521.916 204.174 520.326 199.714 520.326H199.703C195.243 520.326 191.045 521.916 187.885 524.806C183.788 528.558 178.302 530.62 172.441 530.62V530.62C166.574 530.62 161.093 528.558 156.997 524.806C153.848 521.916 149.661 520.326 145.195 520.326H145.19C140.724 520.326 136.526 521.916 133.366 524.806C129.269 528.558 123.788 530.62 117.922 530.62H117.916C112.055 530.62 106.568 528.558 102.472 524.806C96.1572 519.025 85.1444 519.025 78.8182 524.806C74.7274 528.558 69.2353 530.62 63.3686 530.62V530.62C57.5019 530.62 52.0098 528.558 47.9133 524.806C44.7644 521.916 40.5658 520.326 36.0949 520.326H36.0892C31.624 520.326 27.4254 521.916 24.2652 524.806C23.346 525.639 21.7971 525.705 20.7985 524.939C19.7999 524.182 19.7262 522.886 20.6396 522.053C24.7417 518.301 30.2283 516.234 36.0892 516.234H36.0949C41.9616 516.234 47.4481 518.301 51.5502 522.053C54.6991 524.944 58.8977 526.533 63.3686 526.533V526.533C67.8395 526.533 72.0381 524.944 75.1984 522.053C83.3912 514.555 97.9047 514.555 106.098 522.053C109.258 524.944 113.451 526.533 117.916 526.533H117.922C122.387 526.533 126.58 524.944 129.746 522.053C133.842 518.301 139.323 516.234 145.19 516.234" fill="#4A90E2"/>
</g>
<path fill-rule="evenodd" clip-rule="evenodd" d="M145.19 549.698H145.196C151.057 549.698 156.538 551.766 160.629 555.517C163.783 558.408 167.976 559.997 172.441 559.997V559.997C176.907 559.997 181.105 558.408 184.26 555.517C188.356 551.766 193.843 549.698 199.704 549.698H199.715C205.576 549.698 211.057 551.766 215.148 555.517C216.055 556.354 215.987 557.651 214.977 558.408C213.979 559.16 212.424 559.103 211.516 558.27C208.367 555.38 204.175 553.79 199.715 553.79H199.704C195.244 553.79 191.045 555.38 187.885 558.27C183.789 562.022 178.302 564.085 172.441 564.085V564.085C166.575 564.085 161.094 562.022 156.997 558.27C153.848 555.38 149.661 553.79 145.196 553.79H145.19C140.725 553.79 136.526 555.38 133.366 558.27C129.27 562.022 123.789 564.085 117.922 564.085H117.917C112.056 564.085 106.569 562.022 102.473 558.27C96.1578 552.489 85.145 552.489 78.8188 558.27C74.728 562.022 69.2359 564.085 63.3692 564.085V564.085C57.5026 564.085 52.0104 562.022 47.9139 558.27C44.765 555.38 40.5664 553.79 36.0955 553.79H36.0898C31.6246 553.79 27.426 555.38 24.2658 558.27C23.3466 559.103 21.7977 559.169 20.7991 558.403C19.8005 557.646 19.7268 556.35 20.6402 555.517C24.7424 551.766 30.2289 549.698 36.0898 549.698H36.0955C41.9622 549.698 47.4487 551.766 51.5508 555.517C54.6997 558.408 58.8983 559.997 63.3692 559.997V559.997C67.8401 559.997 72.0387 558.408 75.199 555.517C83.3919 548.019 97.9053 548.019 106.098 555.517C109.258 558.408 113.451 559.997 117.917 559.997H117.922C122.388 559.997 126.58 558.408 129.746 555.517C133.843 551.766 139.324 549.698 145.19 549.698" fill="#4A90E2"/>
<path fill-rule="evenodd" clip-rule="evenodd" d="M145.19 583.041H145.196C151.057 583.041 156.538 585.108 160.629 588.86C163.783 591.75 167.976 593.34 172.441 593.34V593.34C176.907 593.34 181.105 591.75 184.26 588.86C188.356 585.108 193.843 583.041 199.704 583.041H199.715C205.576 583.041 211.057 585.108 215.148 588.86C216.055 589.697 215.987 590.993 214.977 591.75C213.979 592.502 212.424 592.445 211.516 591.613C208.367 588.722 204.175 587.133 199.715 587.133H199.704C195.244 587.133 191.045 588.722 187.885 591.613C183.789 595.364 178.302 597.427 172.441 597.427V597.427C166.575 597.427 161.094 595.364 156.997 591.613C153.848 588.722 149.661 587.133 145.196 587.133H145.19C140.725 587.133 136.526 588.722 133.366 591.613C129.27 595.364 123.789 597.427 117.922 597.427H117.917C112.056 597.427 106.569 595.364 102.473 591.613C96.1578 585.832 85.145 585.832 78.8188 591.613C74.728 595.364 69.2359 597.427 63.3692 597.427V597.427C57.5026 597.427 52.0104 595.364 47.9139 591.613C44.765 588.722 40.5664 587.133 36.0955 587.133H36.0898C31.6246 587.133 27.426 588.722 24.2658 591.613C23.3466 592.445 21.7977 592.512 20.7991 591.745C19.8005 590.988 19.7268 589.692 20.6402 588.86C24.7424 585.108 30.2289 583.041 36.0898 583.041H36.0955C41.9622 583.041 47.4487 585.108 51.5508 588.86C54.6997 591.75 58.8983 593.34 63.3692 593.34V593.34C67.8401 593.34 72.0387 591.75 75.199 588.86C83.3919 581.361 97.9053 581.361 106.098 588.86C109.258 591.75 113.451 593.34 117.917 593.34H117.922C122.388 593.34 126.58 591.75 129.746 588.86C133.843 585.108 139.324 583.041 145.19 583.041" fill="#4A90E2"/>
</g>
<path opacity="0.06" d="M1561.47 1257C1895.81 1257 2166.94 986.125 2166.94 651.862H1986.94C1986.94 886.605 1796.51 1077 1561.47 1077V1257ZM2166.94 651.862C2166.94 317.599 1895.81 46.7239 1561.47 46.7239V226.724C1796.51 226.724 1986.94 417.119 1986.94 651.862H2166.94ZM1561.47 46.7239C1227.13 46.7239 956 317.599 956 651.862H1136C1136 417.119 1326.43 226.724 1561.47 226.724V46.7239ZM956 651.862C956 986.125 1227.13 1257 1561.47 1257V1077C1326.43 1077 1136 886.605 1136 651.862H956ZM1561.47 958.76C1730.99 958.76 1868.51 821.412 1868.51 651.862H1688.51C1688.51 721.891 1631.69 778.76 1561.47 778.76V958.76ZM1868.51 651.862C1868.51 482.312 1730.99 344.964 1561.47 344.964V524.964C1631.69 524.964 1688.51 581.833 1688.51 651.862H1868.51ZM1561.47 344.964C1391.95 344.964 1254.43 482.312 1254.43 651.862H1434.43C1434.43 581.833 1491.25 524.964 1561.47 524.964V344.964ZM1254.43 651.862C1254.43 821.412 1391.95 958.76 1561.47 958.76V778.76C1491.25 778.76 1434.43 721.891 1434.43 651.862H1254.43Z" fill="#04A2F4"/>
<path opacity="0.06" d="M26 368.613C224.786 368.613 386 207.559 386 8.8065H266C266 141.211 158.585 248.613 26 248.613V368.613ZM386 8.8065C386 -189.946 224.786 -351 26 -351V-231C158.585 -231 266 -123.598 266 8.8065H386ZM26 -351C-172.786 -351 -334 -189.946 -334 8.8065H-214C-214 -123.598 -106.585 -231 26 -231V-351ZM-334 8.8065C-334 207.559 -172.786 368.613 26 368.613V248.613C-106.585 248.613 -214 141.211 -214 8.8065H-334ZM25.9998 195.04C128.862 195.04 212.314 111.697 212.314 8.80647H92.3145C92.3145 45.3496 62.6609 75.0397 25.9998 75.0397V195.04ZM212.314 8.80647C212.314 -94.0838 128.862 -177.427 25.9998 -177.427V-57.4268C62.6609 -57.4268 92.3145 -27.7366 92.3145 8.80647H212.314ZM25.9998 -177.427C-76.8625 -177.427 -160.315 -94.0838 -160.315 8.80647H-40.3149C-40.3149 -27.7366 -10.6613 -57.4268 25.9998 -57.4268V-177.427ZM-160.315 8.80647C-160.315 111.697 -76.8625 195.04 25.9998 195.04V75.0397C-10.6613 75.0397 -40.3149 45.3496 -40.3149 8.80647H-160.315Z" fill="#04A2F4"/>
</svg>
