<svg width="80" height="80" viewBox="0 0 80 80" fill="none" xmlns="http://www.w3.org/2000/svg">
<circle cx="40" cy="40" r="37" fill="#04A2F4" fill-opacity="0.06" stroke="#F3F3F3" stroke-width="6"/>
<path d="M63 40C63 51.4972 54.5641 61.0239 43.5439 62.7287C43.2951 62.7671 43.0444 62.8019 42.7929 62.8319C41.9837 62.9305 41.1613 62.9859 40.3286 62.9971C40.2188 62.9991 40.1099 63 40 63C39.8901 63 39.7812 62.9991 39.6714 62.9972C38.8388 62.986 38.0163 62.9305 37.2071 62.832C36.9556 62.802 36.7049 62.7672 36.4561 62.7288C25.4359 61.0239 17 51.4972 17 40C17 27.2974 27.2974 17 40 17C52.7026 17 63 27.2974 63 40Z" fill="#F2F2F2"/>
<path d="M63 40C63 40.8665 62.9521 41.7217 62.8582 42.5638C62.8479 42.6577 62.8376 42.7525 62.8263 42.8463C62.7672 43.3232 62.693 43.7963 62.6057 44.2639C62.5888 44.3568 62.5709 44.4488 62.5521 44.5399C60.9261 52.665 55.0203 59.243 47.2839 61.8218C46.1179 62.0471 45.7039 61.3308 45.7039 60.7178C45.7039 59.9602 45.7302 57.4837 45.7302 54.4064C45.7302 52.2603 44.9951 50.8606 44.1709 50.1471C48.1541 49.704 52.295 48.4291 53.9379 43.7259C53.9708 43.6339 54.0018 43.54 54.0318 43.4452C54.1238 43.1589 54.2055 42.8604 54.2787 42.5487C54.3003 42.4558 54.3219 42.3619 54.3416 42.2661C54.5566 41.2476 54.673 40.0976 54.673 38.7983C54.673 36.2879 53.7802 34.2358 52.3055 32.6249C52.5448 32.0457 53.3325 29.7062 52.0801 26.5379C52.0801 26.5379 50.1519 25.9202 45.7612 28.8961C43.9231 28.3863 41.9545 28.131 40 28.1217C38.0455 28.131 36.0778 28.3864 34.2425 28.8961C29.848 25.9202 27.916 26.5379 27.916 26.5379C26.6675 29.7062 27.4551 32.0457 27.6936 32.6249C26.2225 34.2358 25.3231 36.288 25.3231 38.7983C25.3231 40.0966 25.4396 41.2466 25.6555 42.2651C25.6751 42.3609 25.6958 42.4548 25.7174 42.5477C25.7907 42.8594 25.8733 43.1588 25.9653 43.4451C25.9953 43.5399 26.0273 43.6338 26.0592 43.7258C27.7011 48.4206 31.8308 49.7134 35.8028 50.1649C35.1447 50.7395 34.5486 51.7543 34.342 53.2413C33.0296 53.8289 29.7007 54.8447 27.6494 51.3289C27.6494 51.3289 26.4328 49.1209 24.1234 48.9585C24.1234 48.9585 21.8788 48.9294 23.9667 50.3564C23.9667 50.3564 25.4734 51.0643 26.5201 53.7219C26.5201 53.7219 27.8701 57.8272 34.2688 56.4359C34.2791 58.3576 34.2998 60.1695 34.2998 60.7177C34.2998 61.325 33.8782 62.0376 32.7282 61.8245C24.9871 59.2477 19.0747 52.6688 17.4478 44.5399V44.539C17.429 44.4479 17.4111 44.3559 17.3952 44.2639C17.307 43.7963 17.2328 43.3232 17.1746 42.8463C17.1623 42.7525 17.152 42.6586 17.1417 42.5638C17.0479 41.7217 17 40.8665 17 40C17 27.2974 27.2993 17 40 17C52.7017 17 63 27.2974 63 40Z" fill="#007DE7"/>
<path d="M25.506 49.6759C25.3399 49.5971 25.1596 49.6299 25.1099 49.7473C25.0563 49.8618 25.1493 50.0176 25.3164 50.0927C25.4808 50.1716 25.66 50.1378 25.7107 50.0233C25.7689 49.9087 25.6731 49.7511 25.506 49.6759Z" fill="#007DE7"/>
<path d="M26.5774 50.5838C26.4263 50.4242 26.2187 50.3763 26.1062 50.4777C25.9945 50.5809 26.0226 50.7959 26.1728 50.9556C26.3184 51.1161 26.5333 51.164 26.6432 51.0626C26.7577 50.9592 26.7276 50.7461 26.5774 50.5838Z" fill="#007DE7"/>
<path d="M27.5529 51.8333C27.4083 51.6305 27.1811 51.5423 27.0393 51.64C26.8948 51.7385 26.8948 51.9835 27.0355 52.1882C27.1782 52.3928 27.4082 52.4848 27.55 52.3863C27.6936 52.2867 27.6936 52.0408 27.5529 51.8333Z" fill="#007DE7"/>
<path d="M28.6661 53.0789C28.468 52.8903 28.1977 52.8517 28.07 52.9907C27.9442 53.1296 27.9996 53.3935 28.2005 53.5784C28.3976 53.768 28.6661 53.8056 28.7919 53.6666C28.9262 53.5286 28.8652 53.2639 28.6661 53.0789Z" fill="#007DE7"/>
<path d="M30.1298 53.938C29.8669 53.8564 29.6069 53.9418 29.5534 54.1229C29.5008 54.305 29.6707 54.5162 29.9307 54.5951C30.1917 54.6711 30.4498 54.5895 30.5062 54.4092C30.5598 54.2262 30.3899 54.0169 30.1298 53.938Z" fill="#007DE7"/>
<path d="M31.891 54.2121C31.6159 54.2168 31.4 54.3717 31.4 54.5633C31.4028 54.75 31.6254 54.904 31.9004 54.8975C32.1736 54.8947 32.3951 54.7369 32.3885 54.5473C32.3886 54.3596 32.1642 54.2065 31.891 54.2121Z" fill="#007DE7"/>
<path d="M34.14 54.2497C34.1052 54.061 33.8612 53.9502 33.5899 53.9971C33.3223 54.0459 33.129 54.2365 33.1628 54.4261C33.1966 54.6092 33.4434 54.7237 33.711 54.6749C33.9823 54.6242 34.172 54.4347 34.14 54.2497Z" fill="#007DE7"/>
</svg>
