<svg width="80" height="80" viewBox="0 0 80 80" fill="none" xmlns="http://www.w3.org/2000/svg">
<circle cx="40" cy="40" r="37" fill="#04A2F4" fill-opacity="0.06" stroke="#F3F3F3" stroke-width="6"/>
<g clip-path="url(#clip0)">
<path d="M39.6002 27.8839L46.643 54.0585L57.7353 55.1489L67.7823 50.333L65.4514 23.3256L39.6002 27.8839ZM61.951 32.9084L62.2427 36.3011L63.1132 46.4746L56.7403 49.506L56.7369 49.5085L49.7164 48.8349L48.324 43.6808L51.6034 43.1026L52.3264 45.7777L56.1391 46.1183L56.1422 46.114L59.6121 44.4892L59.3108 39.8758L47.8532 41.9285L46.9822 38.8892L59.0207 36.6218L58.68 33.2643L46.056 35.5264L45.3006 32.4839L53.4844 31.0409L61.6681 29.5978L61.951 32.9084Z" fill="#007DE7"/>
</g>
<g clip-path="url(#clip1)">
<path d="M10.2065 27.8204C9.9349 27.8683 9.77161 28.1252 9.84341 28.3914L16.6601 53.6647C16.7319 53.9309 17.0151 54.1704 17.2897 54.1969L27.4794 55.1813C27.7539 55.2078 28.182 55.1323 28.431 55.0137L37.6982 50.5939C37.9471 50.4752 38.1316 50.1533 38.108 49.8786L35.8742 23.8015C35.8508 23.5268 35.6092 23.3412 35.3377 23.3891L10.2065 27.8204ZM31.9507 30.0583C31.9716 30.3033 32.0081 30.7287 32.0316 31.0034L32.0901 31.6877C32.1135 31.9623 32.1471 32.3551 32.1645 32.5604C32.182 32.7658 32.1939 32.9343 32.1907 32.9349C32.1877 32.9354 31.9629 32.975 31.6914 33.0229L24.8033 34.2375C24.5318 34.2854 24.3073 34.3249 24.3044 34.3254C24.3015 34.326 24.0768 34.3656 23.8053 34.4135L20.1775 35.0531C19.906 35.101 19.7427 35.358 19.8145 35.6241L20.4432 37.9521C20.5149 38.2182 20.796 38.3969 21.0675 38.349L24.3958 37.7621C24.6673 37.7142 24.8919 37.6746 24.8949 37.6741C24.8979 37.6736 25.1223 37.634 25.3938 37.5861L31.1147 36.5774C31.3863 36.5295 31.8065 36.4554 32.0485 36.4127C32.2903 36.3701 32.5052 36.5358 32.5258 36.7808C32.5463 37.0259 32.5825 37.4514 32.6061 37.726L33.2704 45.4715C33.2938 45.7463 33.324 46.0972 33.3375 46.2514C33.3508 46.4055 33.1581 46.6288 32.9092 46.7475L27.4498 49.3512C27.2009 49.4698 26.9941 49.5682 26.9902 49.5698C26.9863 49.5714 26.7586 49.551 26.484 49.5246L20.4567 48.9433C20.1823 48.9169 19.8989 48.6774 19.8272 48.4112L18.7253 44.3249C18.6535 44.0587 18.817 43.8017 19.0886 43.7538L19.613 43.6614C19.8845 43.6135 20.3288 43.5351 20.6003 43.4873L21.3823 43.3494C21.6539 43.3015 21.9347 43.4802 22.0067 43.7463L22.4383 45.3459C22.5101 45.6121 22.7934 45.85 23.0681 45.8745L25.8839 46.1265C26.1584 46.1511 26.3841 46.171 26.3853 46.1708C26.3865 46.1706 26.5917 46.0746 26.8413 45.9575L29.4057 44.7552C29.6552 44.6381 29.8403 44.3176 29.8169 44.043L29.5348 40.7354C29.5114 40.4607 29.2701 40.2751 28.9985 40.3229L25.9705 40.8569C25.699 40.9047 25.4746 40.9443 25.4716 40.9448C25.4687 40.9453 25.2441 40.985 24.9725 41.0328L18.6543 42.1469C18.3827 42.1948 18.1019 42.0161 18.0301 41.75L15.8981 33.8482C15.8263 33.582 15.7151 33.1699 15.6509 32.9324C15.5869 32.695 15.7566 32.4616 16.0281 32.4137L23.2288 31.144C23.5004 31.0961 23.725 31.0565 23.728 31.056C23.731 31.0555 23.9554 31.0159 24.2269 30.968L31.4189 29.6999C31.6903 29.6519 31.9297 29.8132 31.9507 30.0583Z" fill="#007DE7"/>
</g>
<defs>
<clipPath id="clip0">
<rect width="30" height="30" fill="white" transform="translate(37.7537 28.2094) rotate(-10)"/>
</clipPath>
<clipPath id="clip1">
<rect width="30" height="30" fill="white" transform="translate(8 28.2094) rotate(-10)"/>
</clipPath>
</defs>
</svg>
