<svg width="80" height="80" viewBox="0 0 80 80" fill="none" xmlns="http://www.w3.org/2000/svg">
<circle cx="40" cy="40" r="37" fill="#04A2F4" fill-opacity="0.06" stroke="#F3F3F3" stroke-width="6"/>
<path d="M63 40C63 42.9966 62.4273 45.8589 61.3843 48.4847C60.8267 49.8891 60.1348 51.2259 59.3237 52.4782C58.3136 54.0403 57.1185 55.472 55.7705 56.7412C54.9809 57.4857 54.1398 58.1738 53.2517 58.8009C49.506 61.4463 44.9351 63 40 63C35.0649 63 30.494 61.4463 26.7482 58.8009C25.6367 58.0161 24.5984 57.1364 23.6456 56.1713C19.5366 52.0172 17 46.3039 17 40C17 33.6961 19.5366 27.9828 23.6456 23.8287C24.6548 22.8073 25.7597 21.8807 26.9453 21.0621C30.6536 18.5001 35.1512 17 40 17C44.8488 17 49.3464 18.5001 53.0547 21.0621C53.9605 21.6864 54.8186 22.3754 55.6231 23.1218C57.0322 24.4248 58.277 25.9033 59.3238 27.5218C60.1349 28.7741 60.8268 30.1109 61.3844 31.5153C62.4273 34.1411 63 37.0034 63 40Z" fill="#007DE7"/>
<path d="M52.1336 37.9309C51.4935 36.0744 48.8686 36.0744 48.3566 37.6108C47.8445 39.1472 49.573 40.0434 52.2617 40.9398C54.9505 41.8361 56.615 44.2048 56.2949 46.3173C55.9748 48.4298 55.0785 51.1827 49.7651 51.1827C46.4442 51.1827 44.5986 49.107 43.6814 47.5504L46.6922 45.7411C46.6922 45.7411 47.7165 47.9178 49.637 47.9178C51.5575 47.9178 52.3257 47.2776 52.3257 45.8052C52.3257 44.0127 46.1159 43.3726 45.1556 40.2996C44.1954 37.2267 45.4758 32.8735 49.957 33.1935C52.7579 33.3936 54.3333 34.7689 55.121 35.7723L52.1336 37.9309Z" fill="white"/>
<path d="M38.1774 33.5137C38.1774 33.5137 38.1774 44.3327 38.1774 45.8052C38.1774 47.2776 36.897 48.0459 35.6166 47.7898C34.3363 47.5337 33.7601 45.9973 33.7601 45.9973L30.8153 47.9818C30.8153 47.9818 31.4554 50.9266 35.4886 51.1828C39.5218 51.4388 41.8264 49.0061 41.8264 46.9575C41.8264 44.9089 41.8264 33.5137 41.8264 33.5137H38.1774Z" fill="white"/>
<path d="M23.6458 21.0621V56.1713C24.5986 57.1364 25.6369 58.016 26.7484 58.8009H53.252C54.1401 58.1738 54.9812 57.4856 55.7707 56.7412H25.7054V23.1218H59.3239V52.4782C60.135 51.2259 60.8269 49.8891 61.3845 48.4846V21.0621H23.6458Z" fill="white"/>
<path d="M24.893 51.1188C26.9083 51.1188 28.542 49.4851 28.542 47.4698C28.542 45.4545 26.9083 43.8208 24.893 43.8208C22.8777 43.8208 21.244 45.4545 21.244 47.4698C21.244 49.4851 22.8777 51.1188 24.893 51.1188Z" fill="white"/>
</svg>
