<svg width="80" height="80" viewBox="0 0 80 80" fill="none" xmlns="http://www.w3.org/2000/svg">
<circle cx="40" cy="40" r="37" fill="#04A2F4" fill-opacity="0.06" stroke="#F3F3F3" stroke-width="6"/>
<path d="M63 40C63 47.5778 59.335 54.2994 53.6817 58.4901C51.315 60.2438 48.6001 61.5542 45.6598 62.2978C43.849 62.7569 41.9536 63 40 63C38.0464 63 36.1501 62.7569 34.3392 62.2978C31.399 61.5542 28.684 60.2438 26.3173 58.4891C20.664 54.2985 17 47.5769 17 40C17 27.2974 27.2974 17 40 17C52.7026 17 63 27.2974 63 40Z" fill="#007DE7"/>
<path d="M53.7053 52.9505C53.5973 52.2267 53.4546 51.4813 53.2781 50.719C53.1223 50.0497 52.9411 49.3672 52.7356 48.6744C52.1948 46.855 51.4823 44.9644 50.6187 43.053C50.2403 42.2175 49.8329 41.3782 49.3982 40.5399C49.0152 39.8011 48.6116 39.0614 48.1862 38.3262C47.7619 37.5902 47.3245 36.8711 46.8748 36.1699C46.3669 35.3748 45.844 34.6031 45.3089 33.8577C44.0866 32.1538 42.8052 30.5908 41.4994 29.2126C41.0028 28.6878 40.5024 28.1903 40.0001 27.7218C39.4285 27.1867 38.8539 26.6901 38.2803 26.2348C34.5355 23.2617 31.1831 22.3689 28.839 23.7217C26.4949 25.0754 25.5918 28.4249 26.294 33.1555C26.401 33.8793 26.5447 34.6247 26.7221 35.3869C26.8761 36.0563 27.0572 36.7388 27.2638 37.4316C27.8046 39.2509 28.517 41.1426 29.3817 43.0529C29.7591 43.8885 30.1665 44.7267 30.6011 45.5651C30.9841 46.3048 31.3888 47.0436 31.8131 47.7796C32.2375 48.5156 32.6749 49.2347 33.1246 49.936C33.6334 50.7321 34.1562 51.5037 34.6905 52.2491C35.9128 53.953 37.1941 55.5151 38.5 56.8932C38.9967 57.418 39.4979 57.9164 40.0001 58.3849C40.5718 58.92 41.1464 59.4156 41.719 59.871C43.0962 60.9646 44.4199 61.7766 45.66 62.2977C48.6002 61.5542 51.3152 60.2437 53.6818 58.4901C54.0122 56.9675 54.0244 55.1021 53.7053 52.9505ZM51.5967 58.1485C51.3235 59.3295 50.8213 60.1387 50.1032 60.5527C49.3859 60.9676 48.434 60.9977 47.2746 60.6447C46.0185 60.2607 44.5522 59.4215 43.0333 58.2151C42.5226 57.8096 42.0109 57.3684 41.4993 56.8943C40.9979 56.4286 40.4966 55.931 39.9991 55.4044C39.1448 54.5004 38.2999 53.5108 37.4757 52.4492C36.9256 51.7404 36.3839 50.9997 35.8554 50.2308C35.0884 49.1165 34.3477 47.943 33.6436 46.7226C32.9386 45.5022 32.2927 44.2743 31.7116 43.0529C31.3098 42.2108 30.9389 41.3716 30.601 40.5408C30.0931 39.296 29.6585 38.069 29.3027 36.8777C29.0962 36.183 28.915 35.5015 28.7638 34.834C28.6079 34.1544 28.4813 33.4897 28.3855 32.8448C28.1001 30.9269 28.1067 29.2371 28.4024 27.9576C28.6756 26.7766 29.1787 25.9673 29.8959 25.5533C30.2836 25.3299 30.7389 25.2172 31.2581 25.2172C31.7012 25.2172 32.1912 25.2989 32.7244 25.4622C33.9805 25.8452 35.4468 26.6855 36.9657 27.8909C37.4764 28.2965 37.989 28.7377 38.4997 29.2137C39.002 29.6783 39.5024 30.1759 39.999 30.7017C40.8542 31.6057 41.6991 32.5952 42.5243 33.6579C43.0744 34.3667 43.6161 35.1073 44.1446 35.8762C44.9106 36.9905 45.6514 38.164 46.3554 39.3834C47.0604 40.6039 47.7063 41.8318 48.2874 43.0531C48.6892 43.8961 49.0601 44.7354 49.398 45.5662C49.9059 46.811 50.3405 48.0371 50.6963 49.2283C50.9028 49.923 51.084 50.6046 51.2361 51.272C51.391 51.9517 51.5177 52.6164 51.6135 53.2612C51.899 55.1791 51.8925 56.8689 51.5967 58.1485Z" fill="#F2F2F2"/>
<path d="M55.4242 36.1333C54.7435 35.8648 54.0263 35.6161 53.2772 35.387C52.6201 35.187 51.9385 35.0021 51.2353 34.8341C49.3896 34.3928 47.3957 34.0643 45.3089 33.8577C44.3973 33.7666 43.467 33.7001 42.5244 33.6577C41.6926 33.6193 40.8496 33.5995 40.0001 33.5995C39.1505 33.5995 38.3074 33.6192 37.4747 33.6577C36.5313 33.7 35.601 33.7676 34.6894 33.8577C32.6025 34.0643 30.6095 34.3928 28.7639 34.8341C28.0607 35.0021 27.3792 35.1871 26.722 35.387C25.9729 35.6151 25.2556 35.8648 24.575 36.1333C20.1281 37.8887 17.6779 40.3465 17.6779 43.053C17.6779 45.7594 20.1281 48.2172 24.5751 49.9736C25.2557 50.2421 25.972 50.4909 26.7211 50.72C27.3782 50.92 28.0598 51.1049 28.763 51.272C30.6086 51.7141 32.6025 52.0417 34.6904 52.2492C35.602 52.3393 36.5323 52.406 37.4757 52.4492C38.3075 52.4876 39.1505 52.5064 40.0001 52.5064C40.8496 52.5064 41.6917 52.4876 42.5235 52.4492C43.467 52.406 44.3964 52.3393 45.3089 52.2492C47.3957 52.0426 49.3906 51.7141 51.2363 51.272C51.9394 51.104 52.621 50.92 53.2782 50.7191C54.0264 50.491 54.7436 50.2422 55.4242 49.9736C59.8721 48.2172 62.3214 45.7595 62.3214 43.053C62.3213 40.3465 59.8721 37.8887 55.4242 36.1333ZM58.8713 45.5482C57.9119 46.4447 56.4512 47.2943 54.6478 48.0069C54.0404 48.2462 53.402 48.4696 52.7354 48.6743C52.0811 48.8762 51.4005 49.0611 50.6964 49.2282C49.4863 49.5164 48.2068 49.753 46.8746 49.9361C45.9865 50.0591 45.075 50.1576 44.1447 50.23C42.7957 50.3379 41.4091 50.3924 40 50.3924C38.5909 50.3924 37.2043 50.3379 35.8553 50.2309C34.925 50.1577 34.0125 50.0592 33.1244 49.9362C31.7923 49.7531 30.5128 49.5165 29.3026 49.2283C28.5985 49.0612 27.918 48.8763 27.2636 48.6744C26.5971 48.4697 25.9588 48.2463 25.3513 48.007C23.548 47.2944 22.0872 46.4448 21.1278 45.5483C20.2415 44.7212 19.7919 43.882 19.7919 43.0531C19.7919 42.2242 20.2415 41.3848 21.1278 40.5578C22.0872 39.6613 23.5479 38.8117 25.3513 38.0992C25.9587 37.8598 26.5971 37.6364 27.2636 37.4317C27.918 37.2298 28.5985 37.0449 29.3026 36.8778C30.5128 36.5896 31.7923 36.353 33.1244 36.1699C34.0125 36.047 34.925 35.9484 35.8553 35.8752C37.2043 35.7682 38.5909 35.7137 40 35.7137C41.4091 35.7137 42.7957 35.7682 44.1447 35.8762C45.075 35.9485 45.9865 36.047 46.8746 36.17C48.2068 36.3531 49.4863 36.5897 50.6964 36.8779C51.4005 37.045 52.0811 37.2299 52.7354 37.4318C53.402 37.6365 54.0403 37.8599 54.6478 38.0993C56.4511 38.8118 57.9119 39.6614 58.8713 40.5579C59.7575 41.385 60.2072 42.2242 60.2072 43.0531C60.2072 43.882 59.7575 44.7212 58.8713 45.5482Z" fill="#F2F2F2"/>
<path d="M51.1602 23.7217C48.8161 22.3689 45.4638 23.2617 41.719 26.2348C41.1463 26.6901 40.5718 27.1867 40.0001 27.7218C39.4979 28.1903 38.9966 28.6887 38.5 29.2135C37.1941 30.5916 35.9128 32.1537 34.6895 33.8576C34.1554 34.6029 33.6324 35.3747 33.1246 36.1698C32.675 36.871 32.2375 37.5902 31.8132 38.3262C31.3889 39.0622 30.9843 39.8009 30.6012 40.5407C30.1665 41.3791 29.7591 42.2183 29.3818 43.0528C28.5171 44.9642 27.8046 46.8548 27.2639 48.6742C27.0573 49.368 26.8762 50.0504 26.7212 50.7197C26.5448 51.4821 26.4011 52.2265 26.2941 52.9503C25.9749 55.1011 25.9871 56.9664 26.3175 58.4891C28.6842 60.2436 31.3991 61.5542 34.3394 62.2977C35.5795 61.7767 36.9032 60.9646 38.2804 59.871C38.854 59.4156 39.4285 58.9191 40.0003 58.3849C40.5025 57.9164 41.0029 57.4189 41.4995 56.8941C42.8044 55.516 44.0867 53.9529 45.3091 52.249C45.8432 51.5035 46.3662 50.7319 46.875 49.9359C47.3246 49.2346 47.7621 48.5155 48.1864 47.7795C48.6116 47.0444 49.0153 46.3056 49.3984 45.5659C49.8331 44.7275 50.2405 43.8883 50.6188 43.0527C51.4825 41.1423 52.1951 39.2507 52.7357 37.4314C52.9413 36.7386 53.1225 36.0561 53.2774 35.3867C53.4548 34.6244 53.5975 33.8791 53.7055 33.1553C54.4075 28.4249 53.5044 25.0754 51.1602 23.7217ZM50.6966 36.8777C50.3408 38.069 49.9061 39.295 49.3982 40.5398C49.0602 41.3706 48.6894 42.2099 48.2877 43.0529C47.7065 44.2743 47.0607 45.5022 46.3557 46.7226C45.6516 47.942 44.9109 49.1155 44.1449 50.2298C43.6154 50.9996 43.0738 51.7403 42.5236 52.4491C41.6994 53.5108 40.8545 54.5003 39.9993 55.4043C39.5027 55.93 39.0023 56.4275 38.5001 56.8932C37.9894 57.3682 37.4769 57.8094 36.9661 58.215C35.4472 59.4213 33.9808 60.2605 32.7247 60.6445C31.5654 60.9975 30.6134 60.9674 29.8962 60.5525C29.179 60.1385 28.6758 59.3293 28.4026 58.1483C28.107 56.8687 28.1003 55.179 28.3857 53.2611C28.4815 52.6162 28.6082 51.9515 28.7631 51.2718C28.9152 50.6044 29.0963 49.9228 29.3029 49.2282C29.6587 48.0368 30.0933 46.8098 30.6012 45.5651C30.9392 44.7343 31.31 43.8949 31.7118 43.0529C32.2929 41.8316 32.9388 40.6037 33.6438 39.3833C34.3479 38.1628 35.0885 36.9894 35.8555 35.875C36.3841 35.1062 36.9248 34.3655 37.4749 33.6577C38.3001 32.595 39.145 31.6056 39.9992 30.7015C40.4968 30.1748 40.9981 29.6773 41.4993 29.2126C42.011 28.7376 42.5226 28.2964 43.0333 27.8908C44.5522 26.6855 46.0187 25.8452 47.2747 25.4622C47.8079 25.2988 48.2979 25.2171 48.741 25.2171C49.2601 25.2171 49.7164 25.3298 50.1031 25.5533C50.8213 25.9673 51.3236 26.7765 51.5967 27.9575C51.8924 29.237 51.899 30.9268 51.6136 32.8447C51.5178 33.4896 51.3911 34.1543 51.2353 34.8339C51.0842 35.5014 50.903 36.1829 50.6966 36.8777Z" fill="#F2F2F2"/>
<path d="M40 47.2483C42.317 47.2483 44.1954 45.37 44.1954 43.053C44.1954 40.7359 42.317 38.8576 40 38.8576C37.683 38.8576 35.8047 40.7359 35.8047 43.053C35.8047 45.37 37.683 47.2483 40 47.2483Z" fill="#F2F2F2"/>
</svg>
