<svg width="80" height="80" viewBox="0 0 80 80" fill="none" xmlns="http://www.w3.org/2000/svg">
<circle cx="40" cy="40" r="36" fill="#007DE7" stroke="white" stroke-width="8"/>
<path d="M39.984 24C31.248 24 24.128 31.12 24.128 39.856C24.128 42.656 24.864 45.376 26.24 47.776L24 56L32.4 53.792C34.72 55.056 37.328 55.728 39.984 55.728C48.72 55.728 55.84 48.608 55.84 39.872C55.84 35.632 54.192 31.648 51.2 28.656C48.208 25.648 44.224 24 39.984 24ZM40 26.672C43.52 26.672 46.816 28.048 49.312 30.544C51.792 33.04 53.168 36.352 53.168 39.872C53.168 47.136 47.248 53.04 39.984 53.04C37.616 53.04 35.296 52.416 33.28 51.2L32.8 50.928L27.808 52.24L29.136 47.376L28.816 46.864C27.504 44.8 26.8 42.352 26.8 39.856C26.816 32.592 32.72 26.672 40 26.672ZM34.368 32.528C34.112 32.528 33.68 32.624 33.312 33.024C32.96 33.424 31.92 34.4 31.92 36.336C31.92 38.288 33.344 40.16 33.52 40.432C33.744 40.704 36.336 44.704 40.32 46.4C41.264 46.832 42 47.072 42.576 47.248C43.52 47.552 44.384 47.504 45.072 47.408C45.84 47.296 47.408 46.448 47.744 45.52C48.08 44.592 48.08 43.808 47.984 43.632C47.872 43.472 47.616 43.376 47.216 43.2C46.816 42.976 44.864 42.016 44.512 41.888C44.144 41.76 43.92 41.696 43.616 42.08C43.36 42.48 42.592 43.376 42.368 43.632C42.128 43.904 41.904 43.936 41.52 43.744C41.104 43.536 39.824 43.12 38.32 41.776C37.136 40.72 36.352 39.424 36.112 39.024C35.92 38.64 36.096 38.4 36.288 38.224C36.464 38.048 36.72 37.76 36.88 37.52C37.088 37.296 37.152 37.12 37.28 36.864C37.408 36.592 37.344 36.368 37.248 36.176C37.152 36 36.352 34.016 36.016 33.232C35.696 32.464 35.376 32.56 35.12 32.544C34.896 32.544 34.64 32.528 34.368 32.528Z" fill="white"/>
</svg>
